<svg width="110" height="28" viewBox="0 0 110 28" fill="none" xmlns="http://www.w3.org/2000/svg">
<path d="M89.7422 27.6494V24.938L103.992 3.48607L104.103 4.48212H89.9468V0.350368H109.796V3.06183L95.5462 24.5137L95.4346 23.5177H110V27.6494H89.7422Z" fill="black"/>
<path d="M74.724 27.6494V4.50056H65.8691V0.350368H88.5643V4.50056H79.7095V27.6494H74.724Z" fill="black"/>
<path d="M58.3028 28C56.1573 28 54.2351 27.7418 52.536 27.2253C50.8494 26.6965 49.417 25.8788 48.2388 24.7721C47.0607 23.6531 46.1615 22.2082 45.5415 20.4374C44.9214 18.6667 44.6113 16.5393 44.6113 14.0553C44.6113 10.8704 45.157 8.23891 46.2484 6.16074C47.3521 4.08256 48.9457 2.53931 51.0292 1.53096C53.1127 0.510321 55.6365 0 58.6005 0C59.6546 0 60.6716 0.0614841 61.6513 0.184453C62.631 0.295125 63.5922 0.467282 64.5347 0.700922V4.81423C63.6294 4.58059 62.7116 4.40843 61.7815 4.29776C60.8638 4.18709 59.9213 4.13175 58.9539 4.13175C56.9324 4.13175 55.2458 4.45762 53.894 5.10935C52.5422 5.76109 51.5253 6.81247 50.8432 8.2635C50.1735 9.70224 49.8387 11.6083 49.8387 13.9816C49.8387 16.4286 50.1797 18.3777 50.8618 19.8287C51.5439 21.2675 52.5422 22.3004 53.8568 22.9275C55.1838 23.5547 56.8146 23.8682 58.7493 23.8682C59.7166 23.8682 60.6716 23.7945 61.6141 23.6469C62.5566 23.4993 63.5302 23.2719 64.5347 22.9644V27.0777C63.6418 27.3606 62.662 27.5819 61.5955 27.7418C60.5289 27.9139 59.4314 28 58.3028 28Z" fill="black"/>
<path d="M17.4395 27.6494L26.6849 0.350368H33.8841L43.1296 27.6494H38.1999L29.959 2.54536H30.5357L22.3133 27.6494H17.4395Z" fill="#FFB04E"/>
<path d="M0 27.6494V0.350372H18.4352V4.40834H4.96689V27.6494H0ZM3.23685 16.1949V12.1369H16.5563V16.1949H3.23685Z" fill="black"/>
</svg>
